<svg width="35" height="35" viewBox="0 0 35 35" fill="none" xmlns="http://www.w3.org/2000/svg">
<path d="M17.7763 1.28125C17.7314 1.28125 17.689 1.29248 17.6466 1.29248C17.5143 1.28873 17.3834 1.28 17.2499 1.28125H17.7763ZM17.5717 21.5839C17.548 21.5839 17.5268 21.5801 17.5031 21.5801C17.4857 21.5801 17.4694 21.5839 17.452 21.5839H17.5717ZM10.1513 14.1135C10.17 14.1098 10.1837 14.0898 10.2037 14.0848C11.3777 18.3328 14.4167 21.5115 17.5044 21.5789C20.3163 21.4491 23.7696 18.3278 24.9198 14.1011C25.4488 14.1335 25.9777 13.5097 26.1262 12.6414C26.2796 11.7357 25.9578 10.9273 25.4126 10.8337C25.3777 10.8275 25.3415 10.85 25.3078 10.8512C25.1493 3.86118 21.8284 1.39602 17.6466 1.28998C13.3338 1.31119 9.47264 4.3078 9.71716 10.8537C9.67599 10.8537 9.63732 10.8275 9.5974 10.835C9.04972 10.9285 8.73035 11.737 8.8838 12.6427C9.03351 13.5459 9.60239 14.2046 10.1513 14.1135ZM23.3142 22.7927L19.3957 30.4602L18.7769 25.4737L19.7437 24.6803H17.4008H15.2588L16.2269 25.4737L15.6068 30.4602L11.6933 22.7927C4.88665 23.7097 0 26.6265 0 33.7175H35C35.0025 26.6252 30.1171 23.7109 23.3142 22.7927Z" fill="#FDFDFD"/>
</svg>
