<svg width="147" height="50" viewBox="0 0 147 50" fill="none" xmlns="http://www.w3.org/2000/svg">
<path d="M68.032 20L68.014 12.458L64.306 18.668H63.01L59.302 12.602V20H56.566V7.4H58.978L63.694 15.23L68.338 7.4H70.75L70.768 20H68.032ZM73.898 7.4H76.796V15.608L82.808 7.4H85.544V20H82.664V11.81L76.652 20H73.898V7.4ZM94.1352 7.4C95.2512 7.4 96.2172 7.586 97.0332 7.958C97.8612 8.33 98.4972 8.858 98.9412 9.542C99.3852 10.226 99.6072 11.036 99.6072 11.972C99.6072 12.896 99.3852 13.706 98.9412 14.402C98.4972 15.086 97.8612 15.614 97.0332 15.986C96.2172 16.346 95.2512 16.526 94.1352 16.526H91.5972V20H88.6812V7.4H94.1352ZM93.9732 14.15C94.8492 14.15 95.5152 13.964 95.9712 13.592C96.4272 13.208 96.6552 12.668 96.6552 11.972C96.6552 11.264 96.4272 10.724 95.9712 10.352C95.5152 9.968 94.8492 9.776 93.9732 9.776H91.5972V14.15H93.9732ZM61.444 36.924H59.428V42H56.53V29.4H59.428V34.494H61.516L64.828 29.4H67.906L63.784 35.484L68.032 42H64.72L61.444 36.924ZM78.128 35.43C78.896 35.658 79.484 36.03 79.892 36.546C80.3 37.062 80.504 37.698 80.504 38.454C80.504 39.57 80.078 40.44 79.226 41.064C78.386 41.688 77.18 42 75.608 42H69.398V29.4H75.266C76.73 29.4 77.87 29.682 78.686 30.246C79.502 30.81 79.91 31.614 79.91 32.658C79.91 33.282 79.754 33.834 79.442 34.314C79.13 34.782 78.692 35.154 78.128 35.43ZM72.296 34.62H75.014C75.65 34.62 76.13 34.494 76.454 34.242C76.778 33.978 76.94 33.594 76.94 33.09C76.94 32.598 76.772 32.22 76.436 31.956C76.112 31.692 75.638 31.56 75.014 31.56H72.296V34.62ZM75.5 39.84C76.868 39.84 77.552 39.3 77.552 38.22C77.552 37.176 76.868 36.654 75.5 36.654H72.296V39.84H75.5ZM92.5661 39.66V42H82.8101V29.4H92.3321V31.74H85.7081V34.476H91.5581V36.744H85.7081V39.66H92.5661ZM100.844 42.216C99.5603 42.216 98.3963 41.94 97.3523 41.388C96.3203 40.824 95.5043 40.05 94.9043 39.066C94.3163 38.07 94.0223 36.948 94.0223 35.7C94.0223 34.452 94.3163 33.336 94.9043 32.352C95.5043 31.356 96.3203 30.582 97.3523 30.03C98.3963 29.466 99.5663 29.184 100.862 29.184C101.954 29.184 102.938 29.376 103.814 29.76C104.702 30.144 105.446 30.696 106.046 31.416L104.174 33.144C103.322 32.16 102.266 31.668 101.006 31.668C100.226 31.668 99.5303 31.842 98.9183 32.19C98.3063 32.526 97.8263 33 97.4783 33.612C97.1423 34.224 96.9743 34.92 96.9743 35.7C96.9743 36.48 97.1423 37.176 97.4783 37.788C97.8263 38.4 98.3063 38.88 98.9183 39.228C99.5303 39.564 100.226 39.732 101.006 39.732C102.266 39.732 103.322 39.234 104.174 38.238L106.046 39.966C105.446 40.698 104.702 41.256 103.814 41.64C102.926 42.024 101.936 42.216 100.844 42.216ZM117.454 31.776H113.422V42H110.542V31.776H106.528V29.4H117.454V31.776ZM125.121 42.216C123.813 42.216 122.631 41.934 121.575 41.37C120.531 40.806 119.709 40.032 119.109 39.048C118.521 38.052 118.227 36.936 118.227 35.7C118.227 34.464 118.521 33.354 119.109 32.37C119.709 31.374 120.531 30.594 121.575 30.03C122.631 29.466 123.813 29.184 125.121 29.184C126.429 29.184 127.605 29.466 128.649 30.03C129.693 30.594 130.515 31.374 131.115 32.37C131.715 33.354 132.015 34.464 132.015 35.7C132.015 36.936 131.715 38.052 131.115 39.048C130.515 40.032 129.693 40.806 128.649 41.37C127.605 41.934 126.429 42.216 125.121 42.216ZM125.121 39.732C125.865 39.732 126.537 39.564 127.137 39.228C127.737 38.88 128.205 38.4 128.541 37.788C128.889 37.176 129.063 36.48 129.063 35.7C129.063 34.92 128.889 34.224 128.541 33.612C128.205 33 127.737 32.526 127.137 32.19C126.537 31.842 125.865 31.668 125.121 31.668C124.377 31.668 123.705 31.842 123.105 32.19C122.505 32.526 122.031 33 121.683 33.612C121.347 34.224 121.179 34.92 121.179 35.7C121.179 36.48 121.347 37.176 121.683 37.788C122.031 38.4 122.505 38.88 123.105 39.228C123.705 39.564 124.377 39.732 125.121 39.732ZM142.991 35.43C143.759 35.658 144.347 36.03 144.755 36.546C145.163 37.062 145.367 37.698 145.367 38.454C145.367 39.57 144.941 40.44 144.089 41.064C143.249 41.688 142.043 42 140.471 42H134.261V29.4H140.129C141.593 29.4 142.733 29.682 143.549 30.246C144.365 30.81 144.773 31.614 144.773 32.658C144.773 33.282 144.617 33.834 144.305 34.314C143.993 34.782 143.555 35.154 142.991 35.43ZM137.159 34.62H139.877C140.513 34.62 140.993 34.494 141.317 34.242C141.641 33.978 141.803 33.594 141.803 33.09C141.803 32.598 141.635 32.22 141.299 31.956C140.975 31.692 140.501 31.56 139.877 31.56H137.159V34.62ZM140.363 39.84C141.731 39.84 142.415 39.3 142.415 38.22C142.415 37.176 141.731 36.654 140.363 36.654H137.159V39.84H140.363Z" fill="#FDFDFD"/>
<path d="M48.3855 16.1275L48.3859 16.1273C48.3846 16.1238 48.3816 16.1162 48.3776 16.1066C47.1397 12.8487 45.2157 9.86045 42.6775 7.32227C37.9558 2.60049 31.6778 0 25 0C18.3222 0 12.0443 2.60049 7.32236 7.32236C2.60049 12.0443 0 18.3223 0 25C0 31.6777 2.60049 37.9558 7.32236 42.6776C12.0443 47.3995 18.3223 50 25 50C31.6777 50 37.9558 47.3995 42.6776 42.6776C47.3995 37.9557 50 31.6777 50 25C50 21.9194 49.4453 18.9244 48.3855 16.1275ZM25 1.5625C27.0922 1.5625 29.142 1.83623 31.11 2.36396C27.3797 3.42773 24.5736 3.15781 22.7782 2.68135C21.9771 2.46875 21.3114 2.2001 20.7831 1.93984C22.1607 1.69111 23.5704 1.5625 25 1.5625ZM18.5995 2.44375C19.177 2.87295 20.4028 3.6501 22.2682 4.16221C23.2834 4.44092 24.5847 4.6627 26.1552 4.6627C28.1924 4.6627 30.684 4.2873 33.5898 3.18135C36.5461 4.34434 39.259 6.11348 41.5728 8.42734C42.6942 9.54883 43.6875 10.7644 44.5464 12.0555C41.0791 9.94971 36.3085 9.31318 30.3582 10.1642C23.1581 11.194 17.7557 10.1201 14.4914 9.03799C12.3728 8.33564 10.8562 7.53945 9.97627 7.01055C12.5215 4.87754 15.4515 3.33184 18.5995 2.44375ZM8.42715 8.42715C8.53818 8.31611 8.65088 8.20723 8.76367 8.09863C9.63096 8.65713 11.3548 9.63535 13.915 10.4928C20.1423 12.5786 26.4143 12.3064 30.5793 11.7107C34.483 11.1524 39.9629 11.0087 43.9021 13.4935C45.7351 14.6498 46.6697 16.0618 46.9171 16.6633C47.6151 18.5006 48.0793 20.4295 48.2956 22.4134C47.4808 23.0177 45.7754 23.9221 43.2605 24.3772C36.9167 25.5253 29.5675 23.258 24.5193 21.1538C20.2564 19.377 16.3275 18.5229 12.8407 18.619C10.0058 18.6962 7.45586 19.3949 5.26182 20.6957C3.60781 21.6764 2.41377 22.8452 1.58994 23.8582C1.86787 18.0268 4.27061 12.5838 8.42715 8.42715ZM25 48.4375C23.3057 48.4375 21.6394 48.2574 20.0215 47.9092C20.6363 47.5573 21.4435 47.1774 22.4494 46.8677C26.0708 45.7524 29.9384 46.2318 33.0005 47.0419C30.4696 47.9587 27.7718 48.4375 25 48.4375ZM41.5729 41.5729C39.7013 43.4443 37.5683 44.9588 35.2571 46.0855C31.7645 44.9264 26.6579 43.895 21.8748 45.4103C19.9625 46.016 18.685 46.8467 18.0008 47.3784C14.4259 46.265 11.1503 44.296 8.42715 41.5729C7.73877 40.8845 7.09873 40.1607 6.50811 39.406C8.72217 38.3601 16.4637 35.4187 26.2444 39.7762C29.5 41.2267 32.4302 41.7402 34.9481 41.7402C37.4411 41.7402 39.53 41.2366 41.1291 40.64C41.9295 40.3414 42.6476 40.007 43.2817 39.668C42.7501 40.3282 42.181 40.9647 41.5729 41.5729ZM45.5316 36.1762C45.5142 36.1942 43.7539 37.9933 40.5831 39.1761C36.305 40.7721 31.6946 40.4938 26.8804 38.3489C20.4616 35.4893 14.892 35.6434 11.3501 36.2761C8.48096 36.7887 6.46123 37.6757 5.57295 38.1213C3.26445 34.7187 1.90098 30.7769 1.61865 26.6235C1.99395 25.8947 3.30605 23.6718 6.05859 22.0398C8.02109 20.8764 10.3172 20.251 12.8831 20.1811C16.1483 20.0924 19.8604 20.9048 23.9181 22.5961C28.1412 24.3564 32.1105 25.4946 35.7156 25.9788C38.6289 26.3701 41.3167 26.3382 43.7044 25.8843C45.8945 25.4678 47.4387 24.7691 48.4222 24.1895C48.4312 24.4591 48.4375 24.7291 48.4375 25.0002C48.4375 28.9883 47.4467 32.8234 45.5842 36.2271L45.5316 36.1762Z" fill="#FDFDFD"/>
</svg>
