<svg width="150" height="50" viewBox="0 0 150 50" fill="none" xmlns="http://www.w3.org/2000/svg">
<path d="M68.032 20L68.014 12.458L64.306 18.668H63.01L59.302 12.602V20H56.566V7.4H58.978L63.694 15.23L68.338 7.4H70.75L70.768 20H68.032ZM74.438 7.4H77.336V15.608L83.348 7.4H86.084V20H83.204V11.81L77.192 20H74.438V7.4ZM95.2152 7.4C96.3312 7.4 97.2972 7.586 98.1132 7.958C98.9412 8.33 99.5772 8.858 100.021 9.542C100.465 10.226 100.687 11.036 100.687 11.972C100.687 12.896 100.465 13.706 100.021 14.402C99.5772 15.086 98.9412 15.614 98.1132 15.986C97.2972 16.346 96.3312 16.526 95.2152 16.526H92.6772V20H89.7612V7.4H95.2152ZM95.0532 14.15C95.9292 14.15 96.5952 13.964 97.0512 13.592C97.5072 13.208 97.7352 12.668 97.7352 11.972C97.7352 11.264 97.5072 10.724 97.0512 10.352C96.5952 9.968 95.9292 9.776 95.0532 9.776H92.6772V14.15H95.0532ZM61.444 36.924H59.428V42H56.53V29.4H59.428V34.494H61.516L64.828 29.4H67.906L63.784 35.484L68.032 42H64.72L61.444 36.924ZM78.668 35.43C79.436 35.658 80.024 36.03 80.432 36.546C80.84 37.062 81.044 37.698 81.044 38.454C81.044 39.57 80.618 40.44 79.766 41.064C78.926 41.688 77.72 42 76.148 42H69.938V29.4H75.806C77.27 29.4 78.41 29.682 79.226 30.246C80.042 30.81 80.45 31.614 80.45 32.658C80.45 33.282 80.294 33.834 79.982 34.314C79.67 34.782 79.232 35.154 78.668 35.43ZM72.836 34.62H75.554C76.19 34.62 76.67 34.494 76.994 34.242C77.318 33.978 77.48 33.594 77.48 33.09C77.48 32.598 77.312 32.22 76.976 31.956C76.652 31.692 76.178 31.56 75.554 31.56H72.836V34.62ZM76.04 39.84C77.408 39.84 78.092 39.3 78.092 38.22C78.092 37.176 77.408 36.654 76.04 36.654H72.836V39.84H76.04ZM93.6461 39.66V42H83.8901V29.4H93.4121V31.74H86.7881V34.476H92.6381V36.744H86.7881V39.66H93.6461ZM102.464 42.216C101.18 42.216 100.016 41.94 98.9723 41.388C97.9403 40.824 97.1243 40.05 96.5243 39.066C95.9363 38.07 95.6423 36.948 95.6423 35.7C95.6423 34.452 95.9363 33.336 96.5243 32.352C97.1243 31.356 97.9403 30.582 98.9723 30.03C100.016 29.466 101.186 29.184 102.482 29.184C103.574 29.184 104.558 29.376 105.434 29.76C106.322 30.144 107.066 30.696 107.666 31.416L105.794 33.144C104.942 32.16 103.886 31.668 102.626 31.668C101.846 31.668 101.15 31.842 100.538 32.19C99.9263 32.526 99.4463 33 99.0983 33.612C98.7623 34.224 98.5943 34.92 98.5943 35.7C98.5943 36.48 98.7623 37.176 99.0983 37.788C99.4463 38.4 99.9263 38.88 100.538 39.228C101.15 39.564 101.846 39.732 102.626 39.732C103.886 39.732 104.942 39.234 105.794 38.238L107.666 39.966C107.066 40.698 106.322 41.256 105.434 41.64C104.546 42.024 103.556 42.216 102.464 42.216ZM119.614 31.776H115.582V42H112.702V31.776H108.688V29.4H119.614V31.776ZM127.821 42.216C126.513 42.216 125.331 41.934 124.275 41.37C123.231 40.806 122.409 40.032 121.809 39.048C121.221 38.052 120.927 36.936 120.927 35.7C120.927 34.464 121.221 33.354 121.809 32.37C122.409 31.374 123.231 30.594 124.275 30.03C125.331 29.466 126.513 29.184 127.821 29.184C129.129 29.184 130.305 29.466 131.349 30.03C132.393 30.594 133.215 31.374 133.815 32.37C134.415 33.354 134.715 34.464 134.715 35.7C134.715 36.936 134.415 38.052 133.815 39.048C133.215 40.032 132.393 40.806 131.349 41.37C130.305 41.934 129.129 42.216 127.821 42.216ZM127.821 39.732C128.565 39.732 129.237 39.564 129.837 39.228C130.437 38.88 130.905 38.4 131.241 37.788C131.589 37.176 131.763 36.48 131.763 35.7C131.763 34.92 131.589 34.224 131.241 33.612C130.905 33 130.437 32.526 129.837 32.19C129.237 31.842 128.565 31.668 127.821 31.668C127.077 31.668 126.405 31.842 125.805 32.19C125.205 32.526 124.731 33 124.383 33.612C124.047 34.224 123.879 34.92 123.879 35.7C123.879 36.48 124.047 37.176 124.383 37.788C124.731 38.4 125.205 38.88 125.805 39.228C126.405 39.564 127.077 39.732 127.821 39.732ZM146.231 35.43C146.999 35.658 147.587 36.03 147.995 36.546C148.403 37.062 148.607 37.698 148.607 38.454C148.607 39.57 148.181 40.44 147.329 41.064C146.489 41.688 145.283 42 143.711 42H137.501V29.4H143.369C144.833 29.4 145.973 29.682 146.789 30.246C147.605 30.81 148.013 31.614 148.013 32.658C148.013 33.282 147.857 33.834 147.545 34.314C147.233 34.782 146.795 35.154 146.231 35.43ZM140.399 34.62H143.117C143.753 34.62 144.233 34.494 144.557 34.242C144.881 33.978 145.043 33.594 145.043 33.09C145.043 32.598 144.875 32.22 144.539 31.956C144.215 31.692 143.741 31.56 143.117 31.56H140.399V34.62ZM143.603 39.84C144.971 39.84 145.655 39.3 145.655 38.22C145.655 37.176 144.971 36.654 143.603 36.654H140.399V39.84H143.603Z" fill="#1C4685"/>
<path d="M48.3855 16.1275L48.3859 16.1273C48.3846 16.1238 48.3816 16.1162 48.3776 16.1066C47.1397 12.8487 45.2157 9.86045 42.6775 7.32227C37.9558 2.60049 31.6778 0 25 0C18.3222 0 12.0443 2.60049 7.32236 7.32236C2.60049 12.0443 0 18.3223 0 25C0 31.6777 2.60049 37.9558 7.32236 42.6776C12.0443 47.3995 18.3223 50 25 50C31.6777 50 37.9558 47.3995 42.6776 42.6776C47.3995 37.9557 50 31.6777 50 25C50 21.9194 49.4453 18.9244 48.3855 16.1275ZM25 1.5625C27.0922 1.5625 29.142 1.83623 31.11 2.36397C27.3797 3.42773 24.5736 3.15781 22.7782 2.68135C21.9771 2.46875 21.3114 2.2001 20.7831 1.93984C22.1607 1.69111 23.5704 1.5625 25 1.5625ZM18.5995 2.44375C19.177 2.87295 20.4028 3.6501 22.2682 4.16221C23.2834 4.44092 24.5847 4.66269 26.1552 4.66269C28.1924 4.66269 30.684 4.2873 33.5898 3.18135C36.5461 4.34434 39.259 6.11348 41.5728 8.42734C42.6942 9.54883 43.6875 10.7644 44.5464 12.0555C41.0791 9.94971 36.3085 9.31318 30.3582 10.1642C23.1581 11.194 17.7557 10.1201 14.4914 9.03799C12.3728 8.33564 10.8562 7.53945 9.97627 7.01055C12.5215 4.87754 15.4515 3.33184 18.5995 2.44375ZM8.42715 8.42715C8.53818 8.31611 8.65088 8.20723 8.76367 8.09863C9.63096 8.65713 11.3548 9.63535 13.915 10.4928C20.1423 12.5786 26.4143 12.3064 30.5793 11.7107C34.483 11.1524 39.9629 11.0087 43.9021 13.4935C45.7351 14.6498 46.6697 16.0618 46.9171 16.6633C47.6151 18.5006 48.0793 20.4295 48.2956 22.4134C47.4808 23.0177 45.7754 23.9221 43.2605 24.3772C36.9167 25.5253 29.5675 23.258 24.5193 21.1538C20.2564 19.377 16.3275 18.5229 12.8407 18.619C10.0058 18.6962 7.45586 19.3949 5.26182 20.6957C3.60781 21.6764 2.41377 22.8452 1.58994 23.8582C1.86787 18.0268 4.27061 12.5838 8.42715 8.42715ZM25 48.4375C23.3057 48.4375 21.6394 48.2574 20.0215 47.9092C20.6363 47.5573 21.4435 47.1774 22.4494 46.8677C26.0708 45.7524 29.9384 46.2318 33.0005 47.0419C30.4696 47.9587 27.7718 48.4375 25 48.4375ZM41.5728 41.5728C39.7013 43.4443 37.5683 44.9588 35.2571 46.0854C31.7645 44.9264 26.6579 43.895 21.8748 45.4103C19.9625 46.016 18.685 46.8467 18.0008 47.3784C14.4259 46.265 11.1503 44.296 8.42715 41.5728C7.73877 40.8845 7.09873 40.1607 6.50811 39.406C8.72217 38.3601 16.4637 35.4187 26.2444 39.7762C29.5 41.2267 32.4302 41.7402 34.9481 41.7402C37.4411 41.7402 39.53 41.2366 41.1291 40.64C41.9295 40.3414 42.6476 40.007 43.2817 39.668C42.7501 40.3282 42.181 40.9647 41.5728 41.5728ZM45.5316 36.1762C45.5142 36.1942 43.7539 37.9933 40.5831 39.1761C36.305 40.7721 31.6946 40.4938 26.8804 38.3489C20.4616 35.4893 14.892 35.6434 11.3501 36.2761C8.48096 36.7887 6.46123 37.6757 5.57295 38.1213C3.26445 34.7187 1.90098 30.7769 1.61865 26.6235C1.99395 25.8947 3.30605 23.6718 6.05859 22.0398C8.02109 20.8764 10.3172 20.251 12.8831 20.1811C16.1483 20.0924 19.8604 20.9048 23.9181 22.5961C28.1412 24.3564 32.1105 25.4946 35.7156 25.9788C38.6289 26.3701 41.3167 26.3382 43.7044 25.8843C45.8945 25.4678 47.4387 24.7691 48.4222 24.1895C48.4312 24.4591 48.4375 24.7291 48.4375 25.0002C48.4375 28.9883 47.4467 32.8234 45.5842 36.2271L45.5316 36.1762Z" fill="#1C4685"/>
</svg>
